<?xml version="1.0" encoding="UTF-8" standalone="no"?><!DOCTYPE svg PUBLIC "-//W3C//DTD SVG 1.1//EN" "http://www.w3.org/Graphics/SVG/1.1/DTD/svg11.dtd"><svg width="100%" height="100%" viewBox="0 0 100 100" version="1.1" xmlns="http://www.w3.org/2000/svg" xmlns:xlink="http://www.w3.org/1999/xlink" xml:space="preserve" xmlns:serif="http://www.serif.com/" style="fill-rule:evenodd;clip-rule:evenodd;stroke-linejoin:round;stroke-miterlimit:2;"><path d="M25,50c0,6.904 -5.596,12.5 -12.5,12.5c-6.904,0 -12.5,-5.596 -12.5,-12.5c0,-6.904 5.596,-12.5 12.5,-12.5c6.904,0 12.5,5.596 12.5,12.5Zm37.5,0c0,6.904 -5.596,12.5 -12.5,12.5c-6.904,0 -12.5,-5.596 -12.5,-12.5c0,-6.904 5.596,-12.5 12.5,-12.5c6.904,0 12.5,5.596 12.5,12.5Zm37.5,0c0,6.904 -5.596,12.5 -12.5,12.5c-6.904,0 -12.5,-5.596 -12.5,-12.5c0,-6.904 5.596,-12.5 12.5,-12.5c6.904,0 12.5,5.596 12.5,12.5Z" style="fill:url(#_Linear1);fill-rule:nonzero;"/><defs><linearGradient id="_Linear1" x1="0" y1="0" x2="1" y2="0" gradientUnits="userSpaceOnUse" gradientTransform="matrix(-193.22,17.3382,-17.3382,-193.22,128.981,37.5)"><stop offset="0" style="stop-color:#d85c5c;stop-opacity:1"/><stop offset="1" style="stop-color:#2756e4;stop-opacity:1"/></linearGradient></defs></svg>