<?xml version="1.0" encoding="UTF-8" standalone="no"?><!DOCTYPE svg PUBLIC "-//W3C//DTD SVG 1.1//EN" "http://www.w3.org/Graphics/SVG/1.1/DTD/svg11.dtd"><svg width="100%" height="100%" viewBox="0 0 439 512" version="1.1" xmlns="http://www.w3.org/2000/svg" xmlns:xlink="http://www.w3.org/1999/xlink" xml:space="preserve" xmlns:serif="http://www.serif.com/" style="fill-rule:evenodd;clip-rule:evenodd;stroke-linejoin:round;stroke-miterlimit:2;"><path d="M46.542,154.833l347.833,0c2.794,-0.111 5.592,0.113 8.333,0.667c4.531,0.997 8.69,3.25 12,6.5c3.845,3.688 6.266,8.619 6.834,13.917c0.105,2.003 0.022,4.012 -0.25,6l-29.625,306.875l-0,1.708c-0.196,1.267 -0.474,2.519 -0.834,3.75l0,0.25c-3.213,9.898 -12.388,16.725 -22.791,16.958l-295.875,0c-1.759,-0.085 -3.504,-0.35 -5.209,-0.791c-1.675,-0.501 -3.294,-1.171 -4.833,-2c-7.367,-4.238 -12.177,-11.86 -12.833,-20.334l-29.167,-306.208c-0.333,-2.29 -0.417,-4.609 -0.25,-6.917c0.583,-5.224 2.988,-10.079 6.792,-13.708c3.446,-3.35 7.787,-5.636 12.5,-6.583c2.461,-0.431 4.96,-0.612 7.458,-0.542l-0.083,0.458Zm-23,-118.166l131.125,-0l-0,-11.667c-0.021,-0.375 -0.021,-0.75 -0,-1.125c0.262,-6.278 2.882,-12.232 7.333,-16.667c4.672,-4.611 10.977,-7.202 17.542,-7.208l81.958,-0c13.239,0.663 23.767,11.745 23.75,25l0,11.667l134.958,-0c9.714,0.794 17.431,8.726 17.959,18.458l-0,43.167c-0,5.92 -4.872,10.791 -10.792,10.791l-416.583,0c-5.874,0.001 -10.724,-4.794 -10.792,-10.666l0,-42.042c-0.043,-0.429 -0.043,-0.862 0,-1.292c0.585,-8.999 7.289,-16.497 16.167,-18.083c2.444,-0.321 4.911,-0.432 7.375,-0.333Zm175.416,219.583c1.037,-10.085 9.633,-17.843 19.771,-17.843c10.139,0 18.734,7.758 19.771,17.843l0,154.167c-1.037,10.085 -9.632,17.842 -19.771,17.842c-10.138,0 -18.734,-7.757 -19.771,-17.842l0,-154.167Zm98.875,-0.833c1.13,-10.327 10.495,-17.931 20.834,-16.917c0.055,-0 0.111,-0.001 0.166,-0.001c10.202,0 18.603,8.382 18.625,18.584l-8.333,154.167c-1.108,10.337 -10.489,17.954 -20.833,16.917c-0.056,0 -0.111,0 -0.167,0c-10.202,0 -18.603,-8.382 -18.625,-18.584l8.333,-154.166Zm-193.666,1.666c-0,0 -0,-0 -0,-0c-0,-10.195 8.388,-18.584 18.583,-18.584c0.056,0 0.111,0.001 0.167,0.001c10.338,-1.014 19.703,6.59 20.833,16.917l8.333,154.166c-0.022,10.202 -8.423,18.584 -18.625,18.584c-0.055,0 -0.111,0 -0.166,-0c-10.345,1.037 -19.725,-6.58 -20.834,-16.917l-8.333,-154.167l0.042,0Z" style="fill:#ff0e35;"/></svg>